Coordinates
version=1
nRows=4
nColumns=107
inDegrees=yes

Units are S.I. units (second, meters, Newtons, ...)
If the header above contains a line with 'inDegrees', this indicates whether rotational values are in degrees (yes) or radians (no).

endheader
time	sternoclavicular_r2	sternoclavicular_r3	unrotscap_r3	unrotscap_r2	acromioclavicular_r2	acromioclavicular_r3	acromioclavicular_r1	unrothum_r1	unrothum_r3	unrothum_r2	elv_angle	shoulder_elv	shoulder1_r2	shoulder_rot	elbow_flexion	pro_sup	deviation	flexion	proximal_distal_r1	proximal_distal_r3	cmc_flexion	cmc_abduction	mp_flexion	ip_flexion	mcp2_flexion	mcp2_abduction	pm2_flexion	md2_flexion	mcp3_flexion	mcp3_abduction	pm3_flexion	md3_flexion	mcp4_flexion	mcp4_abduction	pm4_flexion	md4_flexion	mcp5_flexion	mcp5_abduction	pm5_flexion	md5_flexion	bicpt_tx	bicpt_ty	bicpt_tz	bicpt2_tx	bicpt2_ty	bicpt2_tz	ptpt_tx	ptpt_ty	ptpt_tz	FCUpt_tx	FCUpt_ty	FCUpt_tz	EDCpt_tx	EDCpt_ty	EDCpt_tz	APLpt_tx	APLpt_ty	APLpt_tz	FPLpt_tx	FPLpt_ty	FPLpt_tz	FPLpt2_tx	FPLpt2_ty	FPLpt2_tz	PEC1pt2_tx	PEC1pt2_ty	PEC1pt2_tz	PEC1pt3_tx	PEC1pt3_ty	PEC1pt3_tz	PEC2pt2_tx	PEC2pt2_ty	PEC2pt2_tz	PEC2pt3_tx	PEC2pt3_ty	PEC2pt3_tz	PEC3pt2_tx	PEC3pt2_ty	PEC3pt2_tz	PEC3pt3_tx	PEC3pt3_ty	PEC3pt3_tz	DELT2pt2a_tx	DELT2pt2a_ty	DELT2pt2a_tz	DELT2pt2_tx	DELT2pt2_ty	DELT2pt2_tz	LAT1pt2_tx	LAT1pt2_ty	LAT1pt2_tz	LAT1pt3_tx	LAT1pt3_ty	LAT1pt3_tz	LAT2pt2_tx	LAT2pt2_ty	LAT2pt2_tz	LAT2pt3_tx	LAT2pt3_ty	LAT2pt3_tz	LAT3pt2_tx	LAT3pt2_ty	LAT3pt2_tz	LAT3pt3_tx	LAT3pt3_ty	LAT3pt3_tz
      1.03333333	     -0.31919890	      0.13519759	     -0.13519759	      0.31919890	     -0.06463128	      0.52232731	      0.23478253	     -0.23478253	     -0.52232731	      0.06463128	    100.64902798	     75.57317774	     -1.75665693	    -30.46327594	     29.46278151	     70.01085657	      0.30029697	     -0.59793841	      0.33373408	     -0.29896920	     24.43838641	    -19.10661307	     -1.40811021	      0.00474646	     68.11237486	     11.27875135	     69.45755846	     47.21836405	     70.55528839	      1.96251780	     77.50308886	     44.83266616	     62.61684294	     -9.49516644	     85.45354716	     40.78017861	     55.09872704	    -13.03007036	     78.94274873	      5.62335769	      0.00087454	     -0.03097689	     -0.00484393	      0.01560024	     -0.01820371	     -0.00363492	      0.00237699	     -0.06824496	     -0.00568975	      0.01094068	     -0.18274290	     -0.00026033	     -0.00840128	      0.00274004	     -0.00031309	      0.00031236	      0.00012495	      0.00062473	      0.00039983	      0.00119948	      0.00067471	      0.00000144	     -0.00027916	     -0.00033500	      0.00247712	      0.00869092	      0.00604586	     -0.00810313	      0.01956507	     -0.01855743	      0.00247712	      0.00869092	      0.00604586	      0.00054581	      0.01813758	     -0.00953063	      0.00392540	      0.00483291	      0.01591227	      0.00000000	      0.00763726	      0.00000000	     -0.00709549	     -0.03279039	     -0.00629646	      0.01908197	     -0.00077294	     -0.00772568	     -0.00088169	      0.01477877	     -0.00604586	      0.00243514	      0.02132845	     -0.01763376	     -0.00591990	      0.01280547	     -0.00541608	     -0.01234363	      0.02703843	     -0.03027128	     -0.02317579	      0.01431693	     -0.00726343	     -0.01536656	      0.03123694	     -0.03782861
      1.06666667	     -0.31834640	      0.13483651	     -0.13483651	      0.31834640	     -0.06445867	      0.52093230	      0.23415548	     -0.23415548	     -0.52093230	      0.06445867	    100.84001710	     75.37133927	     -1.75999032	    -31.38912711	     29.61490686	     70.76996673	      0.29681430	     -0.57937432	      0.33070955	     -0.28968716	     24.51080439	    -19.05418349	     -1.06602811	      0.14111928	     63.50887207	     11.19460184	     62.91492295	     43.14908073	     65.94578655	      2.22498190	     72.77726738	     42.42502982	     58.62361085	     -9.34865321	     80.00298672	     38.96177846	     52.12151700	    -13.00867937	     72.73597175	      5.57630830	      0.00087957	     -0.03099432	     -0.00484674	      0.01554889	     -0.01824503	     -0.00352155	      0.00232090	     -0.06828122	     -0.00575090	      0.01102423	     -0.18272056	     -0.00024835	     -0.00849238	      0.00277804	     -0.00033104	      0.00031167	      0.00012467	      0.00062334	      0.00039894	      0.00119682	      0.00067321	      0.00000129	     -0.00027900	     -0.00033481	      0.00247051	      0.00866771	      0.00602971	     -0.00808149	      0.01951282	     -0.01850787	      0.00247051	      0.00866771	      0.00602971	      0.00054435	      0.01808914	     -0.00950517	      0.00391771	      0.00482000	      0.01589325	      0.00000000	      0.00759625	      0.00000000	     -0.00707654	     -0.03270281	     -0.00626241	      0.01948092	     -0.00080478	     -0.00818677	     -0.00087933	      0.01473930	     -0.00602971	      0.00242863	      0.02127148	     -0.01758666	     -0.00590409	      0.01277127	     -0.00540162	     -0.01231066	      0.02696621	     -0.03019043	     -0.02311390	      0.01427869	     -0.00724403	     -0.01532552	      0.03115351	     -0.03772757
      1.10000000	     -0.31783427	      0.13461960	     -0.13461960	      0.31783427	     -0.06435498	      0.52009427	      0.23377880	     -0.23377880	     -0.52009427	      0.06435498	    100.95928485	     75.25008961	     -1.76207193	    -31.92331900	     29.74149538	     71.33358205	      0.30029813	     -0.54229363	      0.33373473	     -0.27114681	     24.70101097	    -18.98199232	     -0.31262893	     -0.67833298	     58.62421905	     11.05826976	     55.80361281	     37.02769460	     61.07849253	      2.36849681	     66.65443890	     39.69396521	     54.75014992	     -9.15349946	     72.71666586	     37.12363436	     48.84130007	    -12.95050208	     64.77291356	      5.55239196	      0.00088376	     -0.03100883	     -0.00484907	      0.01550992	     -0.01827942	     -0.00343685	      0.00227925	     -0.06830815	     -0.00579630	      0.01108637	     -0.18270386	     -0.00023917	     -0.00856001	      0.00280637	     -0.00034457	      0.00030857	      0.00012343	      0.00061714	      0.00039497	      0.00118491	      0.00066651	      0.00000088	     -0.00027856	     -0.00033428	      0.00246653	      0.00865377	      0.00602001	     -0.00806849	      0.01948143	     -0.01847809	      0.00246653	      0.00865377	      0.00602001	      0.00054347	      0.01806004	     -0.00948988	      0.00391308	      0.00481225	      0.01588178	      0.00000000	      0.00757166	      0.00000000	     -0.00706515	     -0.03265021	     -0.00624199	      0.01970589	     -0.00082326	     -0.00845737	     -0.00087792	      0.01471559	     -0.00602001	      0.00242473	      0.02123727	     -0.01755837	     -0.00589460	      0.01275072	     -0.00539293	     -0.01229086	      0.02692283	     -0.03014187	     -0.02307671	      0.01425572	     -0.00723238	     -0.01530086	      0.03110340	     -0.03766688
      1.13333333	     -0.31719945	      0.13435072	     -0.13435072	      0.31719945	     -0.06422644	      0.51905546	      0.23331186	     -0.23331186	     -0.51905546	      0.06422644	    101.14979715	     75.09978883	     -1.76539700	    -32.66946528	     29.72675152	     71.41911570	      0.29200110	     -0.53344580	      0.32649689	     -0.26672290	     24.63200402	    -18.67120942	      0.10253548	     -0.28341759	     54.12612884	     10.43642916	     47.41406823	     30.56747668	     56.08509073	      2.09773755	     59.66962919	     36.50187651	     50.25808577	     -8.95440064	     64.74898035	     34.12957278	     44.66572722	    -12.93163721	     56.96998835	      5.44003625	      0.00088327	     -0.03100714	     -0.00484880	      0.01550392	     -0.01827542	     -0.00342394	      0.00227293	     -0.06831224	     -0.00580319	      0.01109581	     -0.18270132	     -0.00023775	     -0.00857027	      0.00281068	     -0.00034664	      0.00030750	      0.00012300	      0.00061500	      0.00039360	      0.00118081	      0.00066420	      0.00000103	     -0.00027873	     -0.00033447	      0.00246161	      0.00863648	      0.00600799	     -0.00805237	      0.01944252	     -0.01844119	      0.00246161	      0.00863648	      0.00600799	      0.00054239	      0.01802396	     -0.00947093	      0.00390733	      0.00480264	      0.01586752	      0.00000000	      0.00754124	      0.00000000	     -0.00705104	     -0.03258499	     -0.00621673	      0.02001374	     -0.00084919	     -0.00884080	     -0.00087616	      0.01468619	     -0.00600799	      0.00241988	      0.02119485	     -0.01752330	     -0.00588282	      0.01272525	     -0.00538216	     -0.01226631	      0.02686906	     -0.03008166	     -0.02303062	      0.01422725	     -0.00721793	     -0.01527030	      0.03104127	     -0.03759165
